# xmcd
#
# Track frame offsets: 
#        150
#        29279
#        70361
#        96298
#        104897
#        137361
#        151068
#        172886
#        193276
#        206244
#        228230
#        257825
#        286751
#        310106
#
# Disc length: 4217 seconds
#
# Revision: 0
# Processed by: cddbd v1.5.2PL0 Copyright (c) Steve Scherf et al.
# Submitted via: ExactAudioCopy v1.0b3
#
DISCID=c510770e
DTITLE=Various Artist - Svenska Skratt [CD 14)
DYEAR=2011
DGENRE=Comedy
TTITLE0=Hasse Alfredson and Martin Ljung - Guben I Låddan
TTITLE1=Hasse Alfredson and Povel Ramel - Tusenkonstnären
TTITLE2=Hasse Alfredson and Martin Ljung - Artisttjänst Knaprig
TTITLE3=Hasse Alfredson and Martin Ljung - Korn Åt Små Fåglar
TTITLE4=Hasse Alfredson, Martin Ljung, Brita Borg - Kroppkakor
TTITLE5=Hasse Alfredson, Povel Ramel, Martin Ljung, Brita Borg, Gunwer
TTITLE5=Bergqvist - Varm Korv
TTITLE6=Hasse Alfredson and Martin Ljung - Sprängd Anka
TTITLE7=Hasse Alfredson, Brita Borg, Povel Ramel - Frieri
TTITLE8=Hasse Alfredson - Jarragac! (Folkvisa Från Norr)
TTITLE9=Yngve Gamlin - Dilliga Kammaren
TTITLE10=Yngve Gamlin - Tristdebatten I Första Svamlaren
TTITLE11=Magnus and Brasse - Verkmästar'n I Magen
TTITLE12=Magnus and Brasse - Barnombudsmannen
TTITLE13=Magnus and Brasse - Svordomsvisan
EXTD=
EXTT0=
EXTT1=
EXTT2=
EXTT3=
EXTT4=
EXTT5=
EXTT6=
EXTT7=
EXTT8=
EXTT9=
EXTT10=
EXTT11=
EXTT12=
EXTT13=
PLAYORDER=
